<?xml version="1.0" encoding="utf-8"?><svg xmlns="http://www.w3.org/2000/svg"><symbol viewBox="0 0 24 24" id="contact-book"><path d="M8,3 L8,21"/><path d="M20,2.99999899 L20,21 L6,21 C4.8954305,21 4,20.1045695 4,19 L4,4.99999899 C4,3.89542949 4.8954305,2.99999899 6,2.99999899 L20,2.99999899 Z"/><path d="M8,17 C8,15 11.3333333,15.3333333 12.6666667,14 C13.3333333,13.3333333 11.3333333,13.3333333 11.3333333,10 C11.3333333,7.778 12.222,6.66666667 14,6.66666667 C15.778,6.66666667 16.6666667,7.778 16.6666667,10 C16.6666667,13.3333333 14.6666667,13.3333333 15.3333333,14 C16.6666667,15.3333333 20,15 20,17"/></symbol><symbol viewBox="0 0 24 24" id="settings"><path d="M5.03506429,12.7050339 C5.01187484,12.4731696 5,12.2379716 5,12 C5,11.7620284 5.01187484,11.5268304 5.03506429,11.2949661 L3.20577137,9.23205081 L5.20577137,5.76794919 L7.9069713,6.32070904 C8.28729123,6.0461342 8.69629298,5.80882212 9.12862533,5.61412402 L10,3 L14,3 L14.8713747,5.61412402 C15.303707,5.80882212 15.7127088,6.0461342 16.0930287,6.32070904 L18.7942286,5.76794919 L20.7942286,9.23205081 L18.9649357,11.2949661 C18.9881252,11.5268304 19,11.7620284 19,12 C19,12.2379716 18.9881252,12.4731696 18.9649357,12.7050339 L20.7942286,14.7679492 L18.7942286,18.2320508 L16.0930287,17.679291 C15.7127088,17.9538658 15.303707,18.1911779 14.8713747,18.385876 L14,21 L10,21 L9.12862533,18.385876 C8.69629298,18.1911779 8.28729123,17.9538658 7.9069713,17.679291 L5.20577137,18.2320508 L3.20577137,14.7679492 L5.03506429,12.7050339 Z"/><circle cx="12" cy="12" r="1"/></symbol><symbol viewBox="0 0 24 24" id="user"><path stroke-linecap="round" d="M5.5,19.5 C7.83333333,18.5 9.33333333,17.6666667 10,17 C11,16 8,16 8,11 C8,7.66666667 9.33333333,6 12,6 C14.6666667,6 16,7.66666667 16,11 C16,16 13,16 14,17 C14.6666667,17.6666667 16.1666667,18.5 18.5,19.5"/><circle cx="12" cy="12" r="10"/></symbol><symbol viewBox="0 0 24 24" id="calendar"><path d="M3 5H21V21H3V5Z"/><path d="M21 9H3"/><path d="M7 5V3"/><path d="M17 5V3"/></symbol><symbol viewBox="0 0 24 24" id="phone"><path stroke-linecap="round" d="M12.7407967,18.4035953 L15.8976569,15.246735 L21.114676,18.885324 L19.9443794,20.055614 C19.1648657,20.8351277 18.020623,21.1243165 16.9643502,20.8087683 C13.7351168,19.8440753 10.8342484,18.0754771 8.26174492,15.5029737 C5.6892452,12.930474 3.92064841,10.0296102 2.95595454,6.80038244 C2.64039085,5.74410652 2.92958124,4.59985601 3.70910009,3.82033716 L4.87939464,2.65004261 L8.51798358,7.86706169 L5.36112331,11.023922"/></symbol><symbol viewBox="0 0 24 24" id="file"><path stroke-linecap="round" d="M13 3v6h6"/><path d="M13 3l6 6v12H5V3z"/></symbol></svg>